<svg width="32" height="32" viewBox="0 0 32 32" fill="none" xmlns="http://www.w3.org/2000/svg">
<rect width="32" height="32" rx="8" fill="#141414"/>
<path d="M19.3636 10.1815C20.627 11.447 21.3366 13.1622 21.3366 14.9504C21.3366 16.7386 20.627 18.4537 19.3636 19.7193M22.5451 7C24.6521 9.10941 25.8356 11.9689 25.8356 14.9504C25.8356 17.9318 24.6521 20.7913 22.5451 22.9007M10.2905 22.983C8.18349 20.8736 7 18.014 7 15.0325C7 12.0511 8.18349 9.19158 10.2905 7.08217M13.472 19.8015C12.2086 18.5359 11.499 16.8207 11.499 15.0325C11.499 13.2443 12.2086 11.5292 13.472 10.2637" stroke="white" stroke-width="2.25" stroke-linecap="round"/>
</svg>